<svg width="48" height="48" viewBox="0 0 48 48" fill="none" xmlns="http://www.w3.org/2000/svg">
  <path
    d="M10 19.6C10 16.2397 10 14.5595 10.654 13.2761C11.2292 12.1471 12.1471 11.2292 13.2761 10.654C14.5595 10 16.2397 10 19.6 10H28.4C31.7603 10 33.4405 10 34.7239 10.654C35.8529 11.2292 36.7708 12.1471 37.346 13.2761C38 14.5595 38 16.2397 38 19.6V28.4C38 31.7603 38 33.4405 37.346 34.7239C36.7708 35.8529 35.8529 36.7708 34.7239 37.346C33.4405 38 31.7603 38 28.4 38H19.6C16.2397 38 14.5595 38 13.2761 37.346C12.1471 36.7708 11.2292 35.8529 10.654 34.7239C10 33.4405 10 31.7603 10 28.4V19.6Z"
    fill="#F5F5F7" />
  <path
    d="M31.6361 17.34C30.212 16.714 28.6892 16.259 27.0973 16C26.9018 16.3321 26.6734 16.7787 26.5159 17.1341C24.8236 16.895 23.1469 16.895 21.4857 17.1341C21.3283 16.7787 21.0946 16.3321 20.8974 16C19.3037 16.259 17.7793 16.7157 16.3552 17.3433C13.4828 21.4213 12.7041 25.3981 13.0934 29.3184C14.9986 30.6551 16.8449 31.467 18.66 31.9983C19.1082 31.4189 19.5079 30.8029 19.8523 30.1536C19.1964 29.9195 18.5683 29.6306 17.9748 29.2951C18.1323 29.1856 18.2863 29.071 18.4351 28.9531C22.0551 30.5438 25.9881 30.5438 29.5649 28.9531C29.7154 29.071 29.8694 29.1856 30.0251 29.2951C29.4299 29.6322 28.8 29.9211 28.1442 30.1553C28.4885 30.8029 28.8865 31.4205 29.3364 32C31.1533 31.4687 33.0013 30.6567 34.9065 29.3184C35.3633 24.7738 34.1261 20.8335 31.6361 17.34ZM20.3454 26.9075C19.2587 26.9075 18.3676 25.9543 18.3676 24.7937C18.3676 23.6331 19.2397 22.6783 20.3454 22.6783C21.4511 22.6783 22.3422 23.6314 22.3232 24.7937C22.325 25.9543 21.4511 26.9075 20.3454 26.9075ZM27.6545 26.9075C26.5678 26.9075 25.6767 25.9543 25.6767 24.7937C25.6767 23.6331 26.5488 22.6783 27.6545 22.6783C28.7602 22.6783 29.6514 23.6314 29.6323 24.7937C29.6323 25.9543 28.7602 26.9075 27.6545 26.9075Z"
    fill="#5865F2" />
</svg>