<svg width="48" height="48" viewBox="0 0 48 48" fill="none" xmlns="http://www.w3.org/2000/svg">
  <path
    d="M19.7887 36C16.5537 36 13.5382 35.0591 11 33.4356C13.155 33.5751 16.9581 33.2411 19.3236 30.9848C15.7651 30.8215 14.1603 28.0923 13.9509 26.926C14.2533 27.0426 15.6953 27.1826 16.5093 26.856C12.4159 25.8296 11.7879 22.2373 11.9275 21.141C12.695 21.6775 13.9975 21.8641 14.5091 21.8174C10.6948 19.0882 12.067 14.9828 12.7415 14.0963C15.4788 17.8887 19.5812 20.0186 24.6564 20.137C24.5607 19.7174 24.5102 19.2804 24.5102 18.8316C24.5102 15.6109 27.1134 13 30.3247 13C32.0025 13 33.5144 13.7128 34.5757 14.8528C35.6969 14.5901 37.3843 13.9751 38.2092 13.4432C37.7934 14.9361 36.4989 16.1815 35.7159 16.6431C35.7224 16.6588 35.7095 16.6273 35.7159 16.6431C36.4037 16.539 38.2648 16.1814 39 15.6826C38.6364 16.5213 37.264 17.9157 36.1377 18.6964C36.3473 27.9381 29.2765 36 19.7887 36Z"
    fill="#47ACDF" />
</svg>