<svg width="48" height="48" viewBox="0 0 48 48" fill="none" xmlns="http://www.w3.org/2000/svg">
  <path fill-rule="evenodd" clip-rule="evenodd"
    d="M20.0079 13.0012C14.5419 12.9209 10 16.8397 10 21.4615C10 24.1293 11.2861 26.4438 13.7756 28.143C13.7756 28.143 12.8632 31.0808 12.8762 31.1397C12.8891 31.1987 13.0877 31.3144 13.1568 31.2766C13.2259 31.2388 16.4551 29.3599 16.4551 29.3599C18.7693 30.135 20.1809 29.9443 20.4219 29.9117C20.4386 29.9095 20.4497 29.908 20.4551 29.9076C20.2081 29.2021 20.0462 28.1035 20.2305 27.068C21.1953 21.6488 26.8821 19.9631 29.9989 20.251C29.1382 16.3374 25.3998 13.0804 20.0079 13.0012ZM16.2087 17.4492C15.4916 17.4492 14.9105 18.0164 14.9105 18.7161C14.9105 19.4158 15.4916 19.983 16.2087 19.983C16.9257 19.983 17.507 19.4158 17.507 18.7161C17.507 18.0164 16.9257 17.4492 16.2087 17.4492ZM24.0682 17.4492C23.3513 17.4492 22.7701 18.0164 22.7701 18.7161C22.7701 19.4158 23.3513 19.983 24.0682 19.983C24.7853 19.983 25.3666 19.4158 25.3666 18.7161C25.3666 18.0164 24.7854 17.4492 24.0682 17.4492Z"
    fill="#31CE6F" />
  <path fill-rule="evenodd" clip-rule="evenodd"
    d="M38 27.8925C38 23.9331 34.0754 20.9003 29.5224 20.9003C24.7016 20.9003 20.8566 24.0016 20.8566 27.9608C20.8566 31.9273 24.5138 35.2109 29.5279 35.2378C30.5372 35.2433 32.0403 34.9902 33.0539 34.5771C33.0539 34.5771 35.477 36.0105 35.6127 35.9999C35.7483 35.9893 35.8178 35.8845 35.8232 35.7946C35.8286 35.7047 35.0512 33.4673 35.0512 33.4673C37.1318 31.8776 38 30.1259 38 27.8925ZM26.3494 24.1855C25.715 24.1855 25.2008 24.6881 25.2008 25.3083C25.2008 25.9282 25.715 26.431 26.3494 26.431C26.9838 26.431 27.498 25.9284 27.498 25.3083C27.498 24.6881 26.9838 24.1855 26.3494 24.1855ZM32.4913 24.1855C31.8569 24.1855 31.3427 24.6881 31.3427 25.3083C31.3427 25.9282 31.8569 26.431 32.4913 26.431C33.1258 26.431 33.64 25.9284 33.64 25.3083C33.64 24.6881 33.1258 24.1855 32.4913 24.1855Z"
    fill="#31CE6F" />
</svg>