<svg width="48" height="48" viewBox="0 0 48 48" fill="none" xmlns="http://www.w3.org/2000/svg">
  <path fill-rule="evenodd" clip-rule="evenodd"
    d="M24 39C31.732 39 38 32.732 38 25C38 17.268 31.732 11 24 11C16.268 11 10 17.268 10 25C10 27.5109 10.661 29.8674 11.8185 31.905L10 39L17.3149 37.3038C19.3014 38.3854 21.5789 39 24 39ZM24 36.8462C30.5425 36.8462 35.8462 31.5425 35.8462 25C35.8462 18.4576 30.5425 13.1538 24 13.1538C17.4576 13.1538 12.1538 18.4576 12.1538 25C12.1538 27.5261 12.9445 29.8675 14.2918 31.7902L13.2308 35.7692L17.2799 34.7569C19.1894 36.0746 21.5046 36.8462 24 36.8462Z"
    fill="#BFC8D0" />
  <path
    d="M36 24C36 30.6274 30.6274 36 24 36C21.4722 36 19.1269 35.2184 17.1927 33.8837L13.0909 34.9091L14.1658 30.8784C12.8009 28.9307 12 26.5589 12 24C12 17.3726 17.3726 12 24 12C30.6274 12 36 17.3726 36 24Z"
    fill="url(#paint0_linear_8204_252011)" />
  <path fill-rule="evenodd" clip-rule="evenodd"
    d="M24 38C31.732 38 38 31.732 38 24C38 16.268 31.732 10 24 10C16.268 10 10 16.268 10 24C10 26.5109 10.661 28.8674 11.8185 30.905L10 38L17.3149 36.3038C19.3014 37.3854 21.5789 38 24 38ZM24 35.8462C30.5425 35.8462 35.8462 30.5425 35.8462 24C35.8462 17.4576 30.5425 12.1538 24 12.1538C17.4576 12.1538 12.1538 17.4576 12.1538 24C12.1538 26.5261 12.9445 28.8675 14.2918 30.7902L13.2308 34.7692L17.2799 33.7569C19.1894 35.0746 21.5046 35.8462 24 35.8462Z"
    fill="#F5F5F7" />
  <path
    d="M20.5 17.4999C20.1672 16.8313 19.6565 16.8905 19.1407 16.8905C18.2188 16.8905 16.7812 17.9948 16.7812 20.05C16.7813 21.7343 17.5234 23.578 20.0244 26.3361C22.438 28.9979 25.6094 30.3748 28.2422 30.3279C30.875 30.2811 31.4167 28.0154 31.4167 27.2503C31.4167 26.9112 31.2062 26.742 31.0613 26.696C30.1641 26.2654 28.5093 25.4631 28.1328 25.3124C27.7563 25.1617 27.5597 25.3656 27.4375 25.4765C27.0961 25.8018 26.4193 26.7608 26.1875 26.9765C25.9558 27.1922 25.6103 27.083 25.4665 27.0015C24.9374 26.7892 23.5029 26.1511 22.3595 25.0426C20.9453 23.6718 20.8623 23.2001 20.5959 22.7803C20.3828 22.4444 20.5392 22.2384 20.6172 22.1483C20.9219 21.7968 21.3426 21.254 21.5313 20.9843C21.7199 20.7145 21.5702 20.305 21.4803 20.05C21.0938 18.953 20.7663 18.0347 20.5 17.4999Z"
    fill="#F5F5F7" />
  <defs>
    <linearGradient id="paint0_linear_8204_252011" x1="34.5" y1="15" x2="12" y2="36" gradientUnits="userSpaceOnUse">
      <stop stop-color="#5BD066" />
      <stop offset="1" stop-color="#27B43E" />
    </linearGradient>
  </defs>
</svg>