<svg width="16" height="14" viewBox="0 0 16 14" fill="none" xmlns="http://www.w3.org/2000/svg">
<path fill-rule="evenodd" clip-rule="evenodd" d="M0.999888 6.00018C0.734701 6.00018 0.480376 6.10552 0.292861 6.29302C0.105345 6.48052 0 6.73483 0 7C0 7.26517 0.105345 7.51948 0.292861 7.70698C0.480376 7.89448 0.734701 7.99982 0.999888 7.99982H12.5846L8.29107 12.291C8.19811 12.384 8.12436 12.4944 8.07405 12.6158C8.02374 12.7373 7.99784 12.8675 7.99784 12.9989C7.99784 13.1304 8.02374 13.2606 8.07405 13.382C8.12436 13.5035 8.19811 13.6138 8.29107 13.7068C8.38404 13.7997 8.4944 13.8735 8.61587 13.9238C8.73734 13.9741 8.86752 14 8.99899 14C9.13047 14 9.26065 13.9741 9.38212 13.9238C9.50358 13.8735 9.61395 13.7997 9.70692 13.7068L15.7062 7.70787C15.7994 7.615 15.8732 7.50467 15.9236 7.3832C15.9741 7.26173 16 7.13151 16 7C16 6.86849 15.9741 6.73827 15.9236 6.6168C15.8732 6.49533 15.7994 6.385 15.7062 6.29213L9.70692 0.293211C9.61395 0.200251 9.50358 0.126512 9.38212 0.0762029C9.26065 0.0258938 9.13047 0 8.99899 0C8.86752 0 8.73734 0.0258938 8.61587 0.0762029C8.4944 0.126512 8.38404 0.200251 8.29107 0.293211C8.19811 0.38617 8.12436 0.496528 8.07405 0.617985C8.02374 0.739442 7.99784 0.869619 7.99784 1.00108C7.99784 1.13255 8.02374 1.26272 8.07405 1.38418C8.12436 1.50564 8.19811 1.616 8.29107 1.70896L12.5846 6.00018H0.999888Z" fill="#79789D"/>
</svg>
