<svg width="16" height="14" viewBox="0 0 16 14" fill="none" xmlns="http://www.w3.org/2000/svg">
<path fill-rule="evenodd" clip-rule="evenodd" d="M15.0001 6.00018C15.2653 6.00018 15.5196 6.10552 15.7071 6.29302C15.8947 6.48052 16 6.73483 16 7C16 7.26517 15.8947 7.51948 15.7071 7.70698C15.5196 7.89448 15.2653 7.99982 15.0001 7.99982H3.41541L7.70893 12.291C7.80189 12.384 7.87564 12.4944 7.92595 12.6158C7.97626 12.7373 8.00216 12.8675 8.00216 12.9989C8.00216 13.1304 7.97626 13.2606 7.92595 13.382C7.87564 13.5035 7.80189 13.6138 7.70893 13.7068C7.61596 13.7997 7.5056 13.8735 7.38413 13.9238C7.26266 13.9741 7.13248 14 7.00101 14C6.86953 14 6.73935 13.9741 6.61788 13.9238C6.49642 13.8735 6.38605 13.7997 6.29308 13.7068L0.293755 7.70787C0.200639 7.615 0.126761 7.50467 0.0763536 7.3832C0.0259463 7.26173 0 7.13151 0 7C0 6.86849 0.0259463 6.73827 0.0763536 6.6168C0.126761 6.49533 0.200639 6.385 0.293755 6.29213L6.29308 0.293211C6.48084 0.105471 6.73548 0 7.00101 0C7.26653 0 7.52117 0.105471 7.70893 0.293211C7.89668 0.48095 8.00216 0.735579 8.00216 1.00108C8.00216 1.26659 7.89668 1.52122 7.70893 1.70896L3.41541 6.00018H15.0001Z" fill="#F5F5F7"/>
</svg>
