<svg width="20" height="20" viewBox="0 0 20 20" fill="none" xmlns="http://www.w3.org/2000/svg">
<path d="M13 19.5477V13.5176H15V16.2563C15.9167 15.5025 16.646 14.5896 17.188 13.5176C17.7293 12.4456 18 11.273 18 10C18 7.9397 17.3293 6.1598 15.988 4.6603C14.646 3.16147 12.9833 2.28643 11 2.03518V0C13.5333 0.251256 15.6667 1.32328 17.4 3.21608C19.1333 5.10888 20 7.37018 20 10C20 11.5243 19.6957 12.9313 19.087 14.2211C18.479 15.5109 17.65 16.6164 16.6 17.5377H19V19.5477H13ZM9 20C7.73333 19.866 6.55433 19.5186 5.463 18.9578C4.371 18.3963 3.421 17.6673 2.613 16.7709C1.80433 15.875 1.16667 14.8492 0.7 13.6935C0.233333 12.5377 0 11.3065 0 10C0 8.47571 0.304333 7.06868 0.913 5.77889C1.521 4.48911 2.35 3.38358 3.4 2.46231H1V0.452261H7V6.48241H5V3.74372C4.08333 4.48074 3.354 5.38961 2.812 6.47035C2.27067 7.55042 2 8.72697 2 10C2 12.0603 2.671 13.8399 4.013 15.3387C5.35433 16.8382 7.01667 17.7136 9 17.9648V20Z" fill="#6B798F" />
</svg>
