<svg width="18" height="20" viewBox="0 0 18 20" fill="none" xmlns="http://www.w3.org/2000/svg">
    <path class='fill' d="M9 14C10.671 14 12 12.669 12 11C12 9.331 10.671 8 9 8C7.329 8 6 9.331 6 11C6 12.669 7.329 14 9 14Z" fill="#6B798F"/>
    <path class='fill' d="M17.817 9.186C17.5814 8.03435 17.1209 6.94048 16.462 5.967C15.8146 5.00928 14.9897 4.18442 14.032 3.537C13.0584 2.87833 11.9646 2.41789 10.813 2.182C10.2081 2.05933 9.59221 1.99901 8.975 2.002V0L5 3L8.975 6V4.002C9.459 4 9.943 4.046 10.41 4.142C11.305 4.32541 12.1552 4.68321 12.912 5.195C13.6584 5.69824 14.3008 6.34063 14.804 7.087C15.5853 8.24223 16.002 9.60536 16 11C15.9998 11.9359 15.8128 12.8623 15.45 13.725C15.2735 14.1405 15.0579 14.5383 14.806 14.913C14.5531 15.2854 14.2659 15.6332 13.948 15.952C12.98 16.9182 11.7511 17.5809 10.412 17.859C9.48073 18.047 8.52127 18.047 7.59 17.859C6.69456 17.6754 5.84404 17.3173 5.087 16.805C4.34148 16.3022 3.6998 15.6605 3.197 14.915C2.41656 13.7585 1.9997 12.3952 2 11H0C0.00106417 12.7937 0.536886 14.5463 1.539 16.034C2.18685 16.9901 3.01086 17.8142 3.967 18.462C5.45262 19.4675 7.20611 20.0033 9 20C9.60927 19.9999 10.217 19.9386 10.814 19.817C11.9647 19.5794 13.0579 19.1191 14.032 18.462C14.5103 18.1397 14.956 17.7717 15.363 17.363C15.7705 16.9544 16.1388 16.5084 16.463 16.031C17.4676 14.5458 18.0031 12.7931 18 11C17.9999 10.3907 17.9386 9.78301 17.817 9.186Z" fill="#6B798F"/>
</svg>
