<svg width="48" height="48" viewBox="0 0 48 48" fill="none" xmlns="http://www.w3.org/2000/svg">
  <rect width="48" height="48" rx="5" fill="#252B35" />
  <path
    d="M11.4855 15.0796L23.3985 13.545L19.3621 19.4917L19.3456 19.4638L19.2435 19.6361L11.4855 15.0796ZM11.1103 15.5318L18.9318 20.1256L18.7983 20.3223H18.8365L14.773 27.175L11.1103 15.5318ZM15.2003 27.5914L19.3456 20.6009L23.4909 27.5914H15.2003ZM23.4909 28.1714H23.71L23.71 38.5763L15.2985 28.1714H23.4909ZM14.7279 28.388L22.7899 38.3606L9.63682 30.7458L14.5169 28.2935L14.6095 28.5878L14.7279 28.388ZM14.2395 27.7839L9.36785 30.2319L10.7556 16.3369L14.296 27.5914H14.0839L14.2395 27.7839ZM12.4029 14.3767L23.71 9.06053V12.8458L23.3989 12.8059L23.4952 12.9479L12.4029 14.3767ZM24.29 12.8455V9.05926L35.6744 14.3768L24.505 12.9475L24.6015 12.8054L24.29 12.8455ZM24.6011 13.5445L36.5953 15.0794L28.7572 19.6372L28.6544 19.4638L28.6379 19.4917L24.6011 13.5445ZM24 13.6915L28.1071 19.7424H19.8929L24 13.6915ZM24 27.3129L19.8547 20.3223H28.1453L24 27.3129ZM24.5091 27.5914L28.6544 20.6009L32.7997 27.5914H24.5091ZM24.5091 28.1714H32.7015L24.29 38.5763L24.29 28.1714H24.5091ZM29.0689 20.1267L36.973 15.5306L33.2297 27.1796L29.1635 20.3223H29.2017L29.0689 20.1267ZM25.2101 38.3606L33.2721 28.388L33.3878 28.5832L33.4812 28.2926L38.3632 30.7458L25.2101 38.3606ZM33.7065 27.5914L37.3241 16.3337L38.6352 30.2334L33.7605 27.7839L33.9161 27.5914H33.7065Z"
    fill="url(#paint0_linear_7784_282358)" />
  <path
    d="M11.4855 15.0796L23.3985 13.545L19.3621 19.4917L19.3456 19.4638L19.2435 19.6361L11.4855 15.0796ZM11.1103 15.5318L18.9318 20.1256L18.7983 20.3223H18.8365L14.773 27.175L11.1103 15.5318ZM15.2003 27.5914L19.3456 20.6009L23.4909 27.5914H15.2003ZM23.4909 28.1714H23.71L23.71 38.5763L15.2985 28.1714H23.4909ZM14.7279 28.388L22.7899 38.3606L9.63682 30.7458L14.5169 28.2935L14.6095 28.5878L14.7279 28.388ZM14.2395 27.7839L9.36785 30.2319L10.7556 16.3369L14.296 27.5914H14.0839L14.2395 27.7839ZM12.4029 14.3767L23.71 9.06053V12.8458L23.3989 12.8059L23.4952 12.9479L12.4029 14.3767ZM24.29 12.8455V9.05926L35.6744 14.3768L24.505 12.9475L24.6015 12.8054L24.29 12.8455ZM24.6011 13.5445L36.5953 15.0794L28.7572 19.6372L28.6544 19.4638L28.6379 19.4917L24.6011 13.5445ZM24 13.6915L28.1071 19.7424H19.8929L24 13.6915ZM24 27.3129L19.8547 20.3223H28.1453L24 27.3129ZM24.5091 27.5914L28.6544 20.6009L32.7997 27.5914H24.5091ZM24.5091 28.1714H32.7015L24.29 38.5763L24.29 28.1714H24.5091ZM29.0689 20.1267L36.973 15.5306L33.2297 27.1796L29.1635 20.3223H29.2017L29.0689 20.1267ZM25.2101 38.3606L33.2721 28.388L33.3878 28.5832L33.4812 28.2926L38.3632 30.7458L25.2101 38.3606ZM33.7065 27.5914L37.3241 16.3337L38.6352 30.2334L33.7605 27.7839L33.9161 27.5914H33.7065Z"
    fill="url(#paint1_linear_7784_282358)" />
  <path
    d="M11.4855 15.0796L23.3985 13.545L19.3621 19.4917L19.3456 19.4638L19.2435 19.6361L11.4855 15.0796ZM11.1103 15.5318L18.9318 20.1256L18.7983 20.3223H18.8365L14.773 27.175L11.1103 15.5318ZM15.2003 27.5914L19.3456 20.6009L23.4909 27.5914H15.2003ZM23.4909 28.1714H23.71L23.71 38.5763L15.2985 28.1714H23.4909ZM14.7279 28.388L22.7899 38.3606L9.63682 30.7458L14.5169 28.2935L14.6095 28.5878L14.7279 28.388ZM14.2395 27.7839L9.36785 30.2319L10.7556 16.3369L14.296 27.5914H14.0839L14.2395 27.7839ZM12.4029 14.3767L23.71 9.06053V12.8458L23.3989 12.8059L23.4952 12.9479L12.4029 14.3767ZM24.29 12.8455V9.05926L35.6744 14.3768L24.505 12.9475L24.6015 12.8054L24.29 12.8455ZM24.6011 13.5445L36.5953 15.0794L28.7572 19.6372L28.6544 19.4638L28.6379 19.4917L24.6011 13.5445ZM24 13.6915L28.1071 19.7424H19.8929L24 13.6915ZM24 27.3129L19.8547 20.3223H28.1453L24 27.3129ZM24.5091 27.5914L28.6544 20.6009L32.7997 27.5914H24.5091ZM24.5091 28.1714H32.7015L24.29 38.5763L24.29 28.1714H24.5091ZM29.0689 20.1267L36.973 15.5306L33.2297 27.1796L29.1635 20.3223H29.2017L29.0689 20.1267ZM25.2101 38.3606L33.2721 28.388L33.3878 28.5832L33.4812 28.2926L38.3632 30.7458L25.2101 38.3606ZM33.7065 27.5914L37.3241 16.3337L38.6352 30.2334L33.7605 27.7839L33.9161 27.5914H33.7065Z"
    stroke="#DEDFE7" stroke-width="0.579942" />
  <defs>
    <linearGradient id="paint0_linear_7784_282358" x1="24" y1="8" x2="24" y2="40" gradientUnits="userSpaceOnUse">
      <stop offset="0.11319" stop-color="#1D2A52" />
      <stop offset="0.455955" stop-color="#1288EB" />
      <stop offset="0.868343" stop-color="#1D2A52" />
    </linearGradient>
    <linearGradient id="paint1_linear_7784_282358" x1="10.1246" y1="24" x2="38.029" y2="24"
      gradientUnits="userSpaceOnUse">
      <stop stop-color="#1D2A52" />
      <stop offset="0.25" stop-color="#1D2A52" stop-opacity="0.35" />
      <stop offset="0.520833" stop-color="#1D2A52" stop-opacity="0" />
      <stop offset="0.807292" stop-color="#1D2A52" stop-opacity="0.35" />
      <stop offset="1" stop-color="#1D2A52" />
    </linearGradient>
  </defs>
</svg>